<svg width="24" height="24" viewBox="0 0 24 24" fill="none" xmlns="http://www.w3.org/2000/svg">
<path opacity="0.5" d="M2.95838 8.06346L2.95888 8.06256C3.17312 7.67005 3.48282 7.33589 3.98888 6.94834C4.50401 6.55384 5.19088 6.12697 6.14762 5.53286C6.14767 5.53283 6.14772 5.53279 6.14777 5.53276L8.14762 4.29186L8.14776 4.29177C9.15892 3.66389 9.88572 3.21352 10.497 2.91629C11.0981 2.62403 11.5487 2.5 12 2.5C12.4513 2.5 12.9016 2.62401 13.5026 2.91627C14.1138 3.21353 14.8406 3.66391 15.8523 4.29183L15.8524 4.29186L17.8522 5.53276C18.809 6.12692 19.496 6.55383 20.0113 6.94837C20.5175 7.33596 20.8276 7.67022 21.0423 8.06291C21.2577 8.4567 21.3761 8.90618 21.4373 9.55765C21.4995 10.2193 21.5 11.0497 21.5 12.203V13.725C21.5 15.6887 21.499 17.113 21.3577 18.2C21.218 19.2743 20.9492 19.9434 20.4686 20.4404C19.9901 20.9352 19.3502 21.2099 18.3197 21.3533C17.2731 21.4989 15.9001 21.5 14 21.5H10C8.09989 21.5 6.7267 21.4989 5.67988 21.3533C4.64921 21.2099 4.00942 20.9352 3.53158 20.4406C3.05128 19.9435 2.78249 19.2745 2.64269 18.2003C2.50124 17.1135 2.5 15.6891 2.5 13.725V12.204C2.5 11.0502 2.50051 10.2193 2.5628 9.55748C2.62414 8.90579 2.74277 8.45654 2.95838 8.06346Z" stroke="#1D9C3D"/>
<path d="M2 12.204C2 9.915 2 8.771 2.52 7.823C3.038 6.874 3.987 6.286 5.884 5.108L7.884 3.867C9.889 2.622 10.892 2 12 2C13.108 2 14.11 2.622 16.116 3.867L18.116 5.108C20.013 6.286 20.962 6.874 21.481 7.823C22 8.772 22 9.915 22 12.203V13.725C22 17.625 22 19.576 20.828 20.788C19.656 22 17.771 22 14 22H10C6.229 22 4.343 22 3.172 20.788C2.001 19.576 2 17.626 2 13.725V12.204Z" stroke="#1D9C3D"/>
<path d="M11.25 18C11.25 18.1989 11.329 18.3897 11.4697 18.5303C11.6103 18.671 11.8011 18.75 12 18.75C12.1989 18.75 12.3897 18.671 12.5303 18.5303C12.671 18.3897 12.75 18.1989 12.75 18V15C12.75 14.8011 12.671 14.6103 12.5303 14.4697C12.3897 14.329 12.1989 14.25 12 14.25C11.8011 14.25 11.6103 14.329 11.4697 14.4697C11.329 14.6103 11.25 14.8011 11.25 15V18Z" fill="#1D9C3D"/>
</svg>
