<svg width="24" height="24" viewBox="0 0 24 24" fill="none" xmlns="http://www.w3.org/2000/svg">
<path d="M12 2C17.523 2 22 6.477 22 12C22 17.523 17.523 22 12 22C6.477 22 2 17.523 2 12C2 6.477 6.477 2 12 2Z" stroke="#1D9C3D"/>
<path d="M11.6466 12.3534L11.6465 12.3534C11.5528 12.2597 11.5001 12.1326 11.5 12C11.5 12 11.5 11.9999 11.5 11.9999V7C11.5 6.86739 11.5527 6.74022 11.6464 6.64645C11.7402 6.55268 11.8674 6.5 12 6.5C12.1326 6.5 12.2598 6.55268 12.3536 6.64645C12.4473 6.74022 12.5 6.86739 12.5 7V11.586V11.7931L12.6464 11.9396L15.3498 14.643C15.4394 14.737 15.4888 14.8622 15.4877 14.9921C15.4866 15.1232 15.434 15.2486 15.3413 15.3413C15.2486 15.434 15.1232 15.4866 14.9921 15.4877C14.8622 15.4888 14.737 15.4394 14.643 15.3498L11.6466 12.3534Z" stroke="#1D9C3D"/>
</svg>
