<svg width="24" height="24" viewBox="0 0 24 24" fill="none" xmlns="http://www.w3.org/2000/svg">
<path opacity="0.5" d="M9 4.5H8C5.643 4.5 4.464 4.5 3.732 5.232C3 5.964 3 7.143 3 9.5V14.5C3 16.857 3 18.035 3.732 18.768C4.464 19.501 5.643 19.5 8 19.5H9" stroke="#888888" stroke-width="1.5"/>
<path d="M9 6.47599C9 4.18299 9 3.03599 9.707 2.40899C10.414 1.78199 11.495 1.96999 13.657 2.34699L15.987 2.75399C18.381 3.17099 19.578 3.37999 20.289 4.25799C21 5.13699 21 6.40699 21 8.94799V15.053C21 17.593 21 18.863 20.29 19.742C19.578 20.62 18.38 20.829 15.986 21.247L13.658 21.653C11.496 22.03 10.415 22.218 9.708 21.591C9.001 20.964 9 19.817 9 17.524V6.47599Z" stroke="#888888" stroke-width="1.5"/>
<path opacity="0.5" d="M12 11V13" stroke="#888888" stroke-width="1.5" stroke-linecap="round"/>
</svg>
